<svg xmlns="http://www.w3.org/2000/svg" viewBox="0 0 512 512" role="img" aria-label="OnLedge icon">
  <defs>
    <linearGradient id="bg" x1="0" y1="0" x2="1" y2="1">
      <stop offset="0%" stop-color="#0f2f3a"/>
      <stop offset="52%" stop-color="#124454"/>
      <stop offset="100%" stop-color="#d9822b"/>
    </linearGradient>
    <linearGradient id="paper" x1="0" y1="0" x2="0" y2="1">
      <stop offset="0%" stop-color="#f8faf7"/>
      <stop offset="100%" stop-color="#e4efe9"/>
    </linearGradient>
    <linearGradient id="accent" x1="0" y1="0" x2="1" y2="1">
      <stop offset="0%" stop-color="#ffb34a"/>
      <stop offset="100%" stop-color="#eb7a2c"/>
    </linearGradient>
    <filter id="soft" x="-20%" y="-20%" width="140%" height="140%">
      <feDropShadow dx="0" dy="10" stdDeviation="10" flood-opacity="0.22"/>
    </filter>
  </defs>

  <rect width="512" height="512" rx="112" fill="url(#bg)"/>
  <circle cx="420" cy="92" r="76" fill="#ffffff" fill-opacity="0.14"/>

  <g transform="translate(118 78)" filter="url(#soft)">
    <rect x="0" y="0" width="274" height="356" rx="36" fill="url(#paper)"/>
    <rect x="28" y="48" width="218" height="14" rx="7" fill="#9db6bd"/>
    <rect x="28" y="92" width="218" height="14" rx="7" fill="#9db6bd"/>
    <rect x="28" y="136" width="170" height="14" rx="7" fill="#9db6bd"/>

    <g transform="translate(124 220)">
      <circle cx="0" cy="0" r="72" fill="#0f2f3a"/>
      <circle cx="0" cy="0" r="47" fill="url(#accent)"/>
      <circle cx="0" cy="0" r="24" fill="#ffd9a3"/>
      <circle cx="20" cy="-20" r="10" fill="#fff" fill-opacity="0.7"/>
    </g>
  </g>

  <path d="M362 386c34-14 58-44 68-82" fill="none" stroke="#fff" stroke-opacity="0.4" stroke-width="14" stroke-linecap="round"/>
</svg>
